<svg preserveAspectRatio="none" width="100%" height="100%" overflow="visible" style="display: block;" viewBox="0 0 31.9137 30.4321" fill="none" xmlns="http://www.w3.org/2000/svg">
<g id="Group">
<path id="Vector" d="M1.125 29.3071H30.7887M6.30092 1.125H17.4256C18.6057 1.125 19.7375 1.59379 20.5719 2.42825C21.4064 3.2627 21.8752 4.39446 21.8752 5.57456V29.3055H1.85136V5.57456C1.85136 4.39446 2.32015 3.2627 3.1546 2.42825C3.98906 1.59379 5.12082 1.125 6.30092 1.125Z" stroke="white" stroke-width="2.25" stroke-linecap="round" stroke-linejoin="round"/>
<path id="Vector_2" d="M7.41315 7.0593H16.3123M7.41315 12.992H16.3123M21.873 10.7665H24.8394C25.424 10.766 26.0029 10.8808 26.5431 11.1042C27.0834 11.3277 27.5743 11.6553 27.9878 12.0686C28.4013 12.4818 28.7293 12.9725 28.9531 13.5125C29.1769 14.0526 29.2921 14.6314 29.2921 15.216V29.3071M10.394 18.9248H13.3603C13.9503 18.9252 14.5161 19.1596 14.9336 19.5764C15.3511 19.9933 15.5862 20.5588 15.5875 21.1488V29.3071H8.16998V21.1488C8.16998 20.5589 8.40429 19.9932 8.82137 19.5762C9.23844 19.1591 9.80412 18.9248 10.394 18.9248Z" stroke="white" stroke-width="2.25" stroke-linecap="round" stroke-linejoin="round"/>
</g>
</svg>
