<svg preserveAspectRatio="none" width="100%" height="100%" overflow="visible" style="display: block;" viewBox="0 0 75.4869 88.1411" fill="none" xmlns="http://www.w3.org/2000/svg">
<g id="Group 2087330170">
<path id="Vector" d="M0.086825 56.6634C1.24861 57.2281 2.58228 58.2394 3.70773 58.9119C4.64199 59.4701 5.61648 60.0711 6.54642 60.6179L17.9909 67.3423C21.3478 69.3805 24.7315 71.3737 28.1412 73.3214C29.6987 74.1972 31.2337 75.1445 32.7928 76.056C34.3391 76.9594 35.7099 77.4212 37.5309 76.8928C38.0592 76.7394 38.8459 76.2127 39.3349 75.9233L41.4171 74.705L49.2593 70.1424L59.4629 64.2354L62.1733 62.667C62.6898 62.363 63.092 62.1858 63.5584 61.8037C65.0486 60.5843 64.8341 58.7835 64.8405 57.0439L64.8519 53.395C64.8583 50.9309 64.9036 48.4607 64.7942 45.9989C64.696 43.7911 63.271 42.8193 61.7053 41.6061L58.3231 39.0275L42.4124 26.9113L38.6561 24.0479C38.2539 23.7462 36.9475 22.9526 36.8262 22.5347C36.8256 22.5347 39.853 23.4212 40.1631 23.5103C49.7585 26.2837 58.9906 30.1974 67.6641 35.1684C69.4401 36.2016 71.2835 37.2413 72.9355 38.4701C75.7289 40.5477 75.4814 44.2378 75.4809 47.3313L75.4739 54.0573L75.475 60.367C75.4707 63.1574 75.6707 65.3935 73.8823 67.7904C72.5764 69.5414 71.8448 69.7772 69.989 70.8421L65.5991 73.3155C64.6664 73.8309 63.7266 74.4096 62.789 74.9413L57.5079 77.9111L47.0465 83.8534C45.4663 84.7568 43.9021 85.7046 42.2992 86.5717C41.7347 86.8774 41.1751 87.2096 40.6019 87.4995C38.7052 88.3574 36.3341 88.3271 34.4104 87.5749C33.8778 87.3668 33.2472 86.9603 32.7534 86.6758L30.0698 85.1231C26.6385 83.1716 23.2237 81.1909 19.826 79.1803C15.6261 76.7904 11.4555 74.3484 7.31516 71.8555C5.9459 71.035 4.25439 70.2167 2.97938 69.2992C1.66894 68.3562 0.0732374 65.9387 0.106018 64.2413C-0.0317376 63.4333 -0.0321682 57.4352 0.086825 56.6634Z" fill="url(#paint0_linear_5001_15519)"/>
<path id="Vector_2" d="M1.15373 20.783C0.444625 21.8812 0.0499592 23.1545 0.0128109 24.4632V46.5459C0.219309 47.9468 1.08779 49.6052 2.22753 50.4203C3.8269 51.5643 5.8286 52.7224 7.55063 53.6524C13.7489 57.0568 20.2294 59.9144 26.9191 62.1933C28.7177 62.8062 30.5326 63.3693 32.3618 63.883C34.195 64.3897 35.6364 64.7111 37.489 65.3083C36.6624 64.4867 36.0654 64.1843 35.1634 63.5118C33.588 62.3223 31.9934 61.1587 30.3804 60.0217C29.9104 59.6901 29.3987 59.3888 28.9395 59.0582C27.9502 58.3455 26.9697 57.5874 25.9855 56.8726C22.63 54.4409 19.2919 51.9848 15.9714 49.505C14.8283 48.6574 13.6951 47.7968 12.5722 46.9226C11.2048 45.8701 9.8749 45.0704 9.61417 43.2341C9.45355 42.1032 9.48342 40.9133 9.47506 39.7764L9.47851 34.1343L9.48164 30.2599C9.49043 25.5588 9.76912 25.605 13.8223 23.4054L18.8209 20.6683L30.3656 14.2664C31.2137 13.7913 32.0658 13.2925 32.9366 12.8523C34.8464 11.8846 37.173 9.95288 39.4478 10.7845C41.2744 11.4523 43.1772 12.7591 44.8583 13.7857L51.9833 18.1057C52.2308 18.3504 53.7286 19.1666 54.0769 19.3784C54.7681 19.7984 55.5315 20.2444 56.2287 20.6619L66.1056 26.7011C67.8358 27.765 69.5492 28.8563 71.2454 29.9746C72.5491 30.8497 74.0825 31.9717 75.4034 32.7574C75.5091 31.4889 75.4579 29.6473 75.466 28.3295C75.4725 27.2473 75.507 25.5566 75.4164 24.5334C75.363 23.9606 75.2616 23.3934 75.1134 22.8378C74.2906 19.7778 72.4995 18.7291 69.9687 17.2978L67.2853 15.772C66.7089 15.4501 66.1455 15.0645 65.5718 14.7318C64.9119 14.3488 64.2412 13.9896 63.5807 13.6075C62.3908 12.8511 60.8671 12.0471 59.6378 11.3401C58.966 10.9538 58.0597 10.3984 57.3835 10.0758C57.2493 9.98464 57.0433 9.87051 56.8994 9.78423C56.4001 9.50031 55.9936 9.21742 55.4636 8.93535L54.9988 8.67343L54.4338 8.37948C54.3912 8.34355 53.9421 8.08971 53.8644 8.04451C53.1651 7.69432 51.7212 6.78798 51.0225 6.36311L50.4736 6.0263C48.7688 5.15887 47.1443 4.13012 45.4756 3.18748C45.1677 2.95466 43.6015 2.13146 43.1815 1.89952C40.9903 0.431253 39.0871 -0.342521 36.3747 0.146521C35.0941 0.377385 33.2593 1.53479 32.1117 2.17054L26.89 5.09948L15.955 11.2642L8.05302 15.772C5.53076 17.1955 2.79985 18.2778 1.15373 20.783Z" fill="url(#paint1_linear_5001_15519)"/>
<path id="Star 4" d="M37.8282 28.5198L41.3037 39.2164H52.5507L43.4516 45.8272L46.9272 56.5237L37.8282 49.9129L28.7291 56.5237L32.2047 45.8272L23.1056 39.2164H34.3526L37.8282 28.5198Z" fill="url(#paint2_linear_5001_15519)"/>
</g>
<defs>
<linearGradient id="paint0_linear_5001_15519" x1="37.7434" y1="22.5347" x2="37.7434" y2="88.1411" gradientUnits="userSpaceOnUse">
<stop stop-color="#C7151B"/>
<stop offset="1" stop-color="#E71F28"/>
</linearGradient>
<linearGradient id="paint1_linear_5001_15519" x1="37.5531" y1="5.80084e-05" x2="37.5531" y2="65.3083" gradientUnits="userSpaceOnUse">
<stop stop-color="#145CD4"/>
<stop offset="1" stop-color="#103983"/>
</linearGradient>
<linearGradient id="paint2_linear_5001_15519" x1="37.8282" y1="28.5198" x2="37.8282" y2="59.4802" gradientUnits="userSpaceOnUse">
<stop stop-color="#F6D577"/>
<stop offset="1" stop-color="#CF9E30"/>
</linearGradient>
</defs>
</svg>
