<svg preserveAspectRatio="none" width="100%" height="100%" overflow="visible" style="display: block;" viewBox="0 0 27 33" fill="none" xmlns="http://www.w3.org/2000/svg">
<g id="Group">
<path id="Vector" d="M24 9H3C2.60218 9 2.22064 9.15804 1.93934 9.43934C1.65804 9.72064 1.5 10.1022 1.5 10.5V30C1.5 30.3978 1.65804 30.7794 1.93934 31.0607C2.22064 31.342 2.60218 31.5 3 31.5H24C24.3978 31.5 24.7794 31.342 25.0607 31.0607C25.342 30.7794 25.5 30.3978 25.5 30V10.5C25.5 10.1022 25.342 9.72064 25.0607 9.43934C24.7794 9.15804 24.3978 9 24 9Z" stroke="#d71c1d" stroke-width="3" stroke-linecap="round" stroke-linejoin="round"/>
<path id="Vector_2" d="M8.25 12V6.75C8.25 6.06056 8.38579 5.37787 8.64963 4.74091C8.91347 4.10395 9.30018 3.5252 9.78769 3.03769C10.2752 2.55018 10.854 2.16347 11.4909 1.89963C12.1279 1.6358 12.8106 1.5 13.5 1.5C14.1894 1.5 14.8721 1.6358 15.5091 1.89963C16.146 2.16347 16.7248 2.55018 17.2123 3.03769C17.6998 3.5252 18.0865 4.10395 18.3504 4.74091C18.6142 5.37787 18.75 6.06056 18.75 6.75V12" stroke="#d71c1d" stroke-width="3" stroke-linecap="round" stroke-linejoin="round"/>
</g>
</svg>
