<svg preserveAspectRatio="none" width="100%" height="100%" overflow="visible" style="display: block;" viewBox="0 0 272.723 46.2951" fill="none" xmlns="http://www.w3.org/2000/svg">
<g id="Group 1000006922">
<g id="SmartBiz">
<path d="M17.97 46.2951C15.1679 46.2951 12.772 45.95 10.7821 45.2596C8.79221 44.5692 7.12721 43.6758 5.78709 42.5793C4.48758 41.4829 3.45203 40.3255 2.68044 39.1072C1.90886 37.8483 1.32001 36.6706 0.913916 35.5742C0.548427 34.4777 0.304769 33.5843 0.18294 32.8939C0.0611103 32.2036 0.000195655 31.8584 0.000195655 31.8584H8.40642C8.40642 31.8584 8.44703 32.102 8.52825 32.5893C8.65008 33.0767 8.89374 33.7061 9.25922 34.4777C9.62471 35.2087 10.1526 35.9397 10.843 36.6706C11.574 37.4016 12.5283 38.0311 13.706 38.559C14.9243 39.0463 16.4268 39.29 18.2137 39.29C20.9751 39.29 23.0665 38.6808 24.4879 37.4625C25.9498 36.2036 26.6808 34.6604 26.6808 32.833C26.6808 31.2898 26.1326 30.0715 25.0361 29.1781C23.9397 28.2441 22.3153 27.5537 20.1629 27.107L14.1933 25.8278C11.8786 25.3405 9.70593 24.6095 7.67544 23.6349C5.68556 22.6603 4.08148 21.3404 2.86318 19.6754C1.64489 18.0104 1.03574 15.8784 1.03574 13.2794C1.03574 10.5585 1.70581 8.20318 3.04593 6.2133C4.42666 4.22342 6.31502 2.70056 8.71099 1.6447C11.107 0.548237 13.909 4.49618e-06 17.1172 4.49618e-06C20.1629 4.49618e-06 22.6808 0.446712 24.6706 1.34013C26.6605 2.23354 28.2443 3.33001 29.422 4.62952C30.6403 5.92903 31.5337 7.22855 32.1022 8.52806C32.6708 9.82757 33.0362 10.924 33.1987 11.8174C33.4017 12.7109 33.5033 13.1576 33.5033 13.1576H25.4016C25.4016 13.1576 25.3204 12.853 25.1579 12.2439C24.9955 11.5941 24.63 10.8631 24.0615 10.0509C23.4929 9.23873 22.6401 8.52806 21.5031 7.91891C20.366 7.26916 18.8431 6.94428 16.9345 6.94428C14.2136 6.94428 12.2237 7.55342 10.9648 8.77172C9.74654 9.99001 9.13739 11.3098 9.13739 12.7312C9.13739 14.1931 9.70593 15.3302 10.843 16.1424C11.9801 16.9546 13.5029 17.584 15.4116 18.0307L21.8076 19.3709C24.2036 19.8988 26.3965 20.6907 28.3864 21.7465C30.3763 22.8024 31.9601 24.2034 33.1378 25.9496C34.3155 27.6553 34.9043 29.7873 34.9043 32.3457C34.9043 34.9447 34.2545 37.3001 32.955 39.4118C31.6555 41.5235 29.7469 43.2088 27.229 44.4677C24.7112 45.686 21.6249 46.2951 17.97 46.2951Z" fill="var(--fill-0, white)"/>
<path d="M41.0719 45.686V13.4012H49.1736V17.9089H49.4781C49.8842 17.1779 50.4528 16.4267 51.1837 15.6551C51.9147 14.8429 52.8487 14.1728 53.9858 13.6449C55.1635 13.0764 56.6051 12.7921 58.3108 12.7921C60.7067 12.7921 62.6763 13.3606 64.2195 14.4977C65.7626 15.6348 66.8997 17.0967 67.6307 18.8835H67.7525C68.5647 17.3404 69.7627 15.9393 71.3465 14.6804C72.9709 13.4215 75.1232 12.7921 77.8034 12.7921C80.0776 12.7921 81.9659 13.32 83.4685 14.3759C85.0117 15.3911 86.1488 16.7718 86.8797 18.5181C87.6513 20.2643 88.0371 22.1526 88.0371 24.1831V45.686H79.9355V25.8887C79.9355 24.0207 79.4684 22.4978 78.5344 21.3201C77.641 20.1018 76.3009 19.4927 74.5141 19.4927C73.0927 19.4927 71.9353 19.8785 71.0419 20.6501C70.1891 21.3811 69.5597 22.3151 69.1536 23.4521C68.7881 24.5892 68.6053 25.7466 68.6053 26.9243V45.686H60.5037V25.8887C60.5037 24.0207 60.057 22.4978 59.1636 21.3201C58.2701 20.1018 56.9097 19.4927 55.0823 19.4927C53.6609 19.4927 52.5036 19.8785 51.6101 20.6501C50.7573 21.3811 50.1279 22.3354 49.7218 23.5131C49.3563 24.6501 49.1736 25.7872 49.1736 26.9243V45.686H41.0719Z" fill="var(--fill-0, white)"/>
<path d="M109.152 12.7921C111.223 12.7921 112.928 13.1373 114.268 13.8276C115.609 14.4774 116.664 15.2084 117.436 16.0206C118.208 16.7921 118.736 17.4216 119.02 17.9089H119.385V13.4012H127.487V45.686H119.385V41.1783H119.02C118.736 41.6656 118.208 42.3154 117.436 43.1276C116.664 43.9398 115.609 44.6708 114.268 45.3205C112.928 45.9703 111.223 46.2951 109.152 46.2951C106.756 46.2951 104.664 45.8281 102.877 44.8941C101.091 43.9195 99.588 42.6403 98.3697 41.0565C97.1921 39.4321 96.2987 37.625 95.6895 35.6351C95.121 33.6452 94.8367 31.6147 94.8367 29.5436C94.8367 27.4725 95.121 25.442 95.6895 23.4521C96.2987 21.4623 97.1921 19.6754 98.3697 18.0917C99.588 16.4673 101.091 15.1881 102.877 14.254C104.664 13.2794 106.756 12.7921 109.152 12.7921ZM111.284 19.4318C109.456 19.4318 107.913 19.9394 106.654 20.9546C105.436 21.9293 104.522 23.1882 103.913 24.7314C103.304 26.2745 102.999 27.8786 102.999 29.5436C102.999 31.2086 103.304 32.8127 103.913 34.3559C104.522 35.899 105.436 37.1782 106.654 38.1935C107.913 39.1681 109.456 39.6554 111.284 39.6554C113.111 39.6554 114.634 39.1681 115.852 38.1935C117.071 37.1782 117.984 35.899 118.593 34.3559C119.203 32.8127 119.507 31.2086 119.507 29.5436C119.507 27.8786 119.203 26.2745 118.593 24.7314C117.984 23.1882 117.071 21.9293 115.852 20.9546C114.634 19.9394 113.111 19.4318 111.284 19.4318Z" fill="var(--fill-0, white)"/>
<path d="M135.061 45.686V13.4012H143.102V17.848H143.407C143.975 16.5891 144.909 15.4317 146.209 14.3759C147.508 13.32 149.457 12.7921 152.057 12.7921C152.869 12.7921 153.539 12.853 154.067 12.9748C154.595 13.056 154.859 13.0967 154.859 13.0967V20.9546C154.859 20.9546 154.554 20.914 153.945 20.8328C153.376 20.7516 152.666 20.711 151.813 20.711C148.97 20.711 146.818 21.5029 145.356 23.0867C143.894 24.6704 143.163 27.2289 143.163 30.7619V45.686H135.061Z" fill="var(--fill-0, white)"/>
<path d="M175.199 46.2951C173.006 46.2951 171.199 45.9703 169.778 45.3205C168.357 44.6708 167.24 43.8179 166.428 42.7621C165.656 41.7062 165.108 40.5489 164.783 39.29C164.458 38.0311 164.296 36.7925 164.296 35.5742V19.9191H158.752V13.4012H164.296V5.36049H172.397V13.4012H179.646V19.9191H172.397V35.3914C172.397 38.2747 174.022 39.7164 177.27 39.7164C178.042 39.7164 178.753 39.6757 179.402 39.5945C180.093 39.4727 180.438 39.4118 180.438 39.4118V45.7469C180.438 45.7469 179.91 45.8281 178.854 45.9906C177.839 46.1936 176.621 46.2951 175.199 46.2951Z" fill="var(--fill-0, white)"/>
<path d="M187.662 45.686V0.609154H207.338C210.221 0.609154 212.678 1.11678 214.708 2.13202C216.739 3.14726 218.282 4.50769 219.338 6.2133C220.434 7.91891 220.982 9.78696 220.982 11.8174C220.982 13.8885 220.597 15.5942 219.825 16.9343C219.094 18.2744 218.201 19.3303 217.145 20.1018C216.13 20.8328 215.196 21.3404 214.343 21.6247V22.0511C215.399 22.3354 216.576 22.8836 217.876 23.6958C219.216 24.508 220.373 25.6654 221.348 27.1679C222.323 28.6299 222.81 30.5386 222.81 32.8939C222.81 35.0056 222.302 37.0564 221.287 39.0463C220.272 40.9956 218.668 42.5997 216.475 43.8586C214.282 45.0768 211.378 45.686 207.764 45.686H187.662ZM206.241 7.61434H195.946V19.3709H206.241C208.596 19.3709 210.302 18.782 211.358 17.6043C212.414 16.4267 212.942 15.0459 212.942 13.4621C212.942 11.919 212.414 10.5585 211.358 9.38086C210.302 8.20318 208.596 7.61434 206.241 7.61434ZM206.85 25.706H195.946V38.6808H206.85C209.53 38.6808 211.48 38.0311 212.698 36.7315C213.916 35.432 214.525 33.9092 214.525 32.1629C214.525 30.4573 213.916 28.9548 212.698 27.6553C211.48 26.3557 209.53 25.706 206.85 25.706Z" fill="var(--fill-0, white)"/>
<path d="M230.439 45.686V13.4012H238.541V45.686H230.439Z" fill="var(--fill-0, white)"/>
<path d="M245.86 45.686V40.0818L262.916 19.8582H246.53V13.4012H272.723V19.0054L255.606 39.229H272.723V45.686H245.86Z" fill="var(--fill-0, white)"/>
</g>
<path id="." d="M234.742 11.59C233.198 11.59 231.936 11.0814 230.956 10.0642C230.014 9.00929 229.543 7.78487 229.543 6.39093C229.543 4.92163 230.014 3.69722 230.956 2.71769C231.936 1.70049 233.198 1.19189 234.742 1.19189C236.249 1.19189 237.493 1.70049 238.472 2.71769C239.452 3.69722 239.941 4.92163 239.941 6.39093C239.941 7.82255 239.452 9.04696 238.472 10.0642C237.493 11.0814 236.249 11.59 234.742 11.59Z" fill="var(--fill-0, white)"/>
</g>
</svg>
