<svg preserveAspectRatio="none" width="100%" height="100%" overflow="visible" style="display: block;" viewBox="0 0 25.469 25.469" fill="none" xmlns="http://www.w3.org/2000/svg">
<g id="Group">
<path id="Vector" d="M7.13161 18.3386C10.7047 21.8271 15.3108 23.9489 20.8389 24.6969C22.0557 24.8612 23.2133 24.0963 23.5239 22.9073L24.7189 18.341L17.0254 15.0399L13.9345 18.0861C12.5981 17.2777 11.3547 16.3231 10.2286 15.2404C9.1459 14.1143 8.19132 12.8709 7.38295 11.5345L10.4292 8.44356L7.12799 0.750107L2.5617 1.94515C1.3739 2.25569 0.607821 3.41327 0.772154 4.63007C1.52132 10.1582 3.64195 14.7656 7.1304 18.3374L7.13161 18.3386Z" stroke="var(--stroke-0, white)" stroke-width="1.5" stroke-miterlimit="10" stroke-linecap="round" stroke-linejoin="round"/>
<path id="Vector_2" d="M15.0522 0.750107C20.3907 0.750107 24.7189 5.07836 24.7189 10.4168" stroke="var(--stroke-0, white)" stroke-width="1.5" stroke-miterlimit="10" stroke-linecap="round" stroke-linejoin="round"/>
<path id="Vector_3" d="M15.0522 5.58344C17.7214 5.58344 19.8856 7.74757 19.8856 10.4168" stroke="var(--stroke-0, white)" stroke-width="1.5" stroke-miterlimit="10" stroke-linecap="round" stroke-linejoin="round"/>
</g>
</svg>
