<svg preserveAspectRatio="none" width="100%" height="100%" overflow="visible" style="display: block;" viewBox="0 0 24 24" fill="none" xmlns="http://www.w3.org/2000/svg">
<g id="Frame" clip-path="url(#clip0_5002_15591)">
<g id="Vector">
</g>
<path id="Vector_2" d="M9 4H5C4.46957 4 3.96086 4.21071 3.58579 4.58579C3.21071 4.96086 3 5.46957 3 6C3.23705 9.90074 4.8935 13.5798 7.65683 16.3432C10.4202 19.1065 14.0993 20.763 18 21C18.5304 21 19.0391 20.7893 19.4142 20.4142C19.7893 20.0391 20 19.5304 20 19V15L15 13L13.5 15.5C11.3285 14.429 9.57096 12.6715 8.5 10.5L11 9L9 4Z" stroke="var(--stroke-0, #D71C1D)" stroke-width="2" stroke-linecap="round" stroke-linejoin="round"/>
<path id="Vector_3" d="M15 7V7.01" stroke="var(--stroke-0, #D71C1D)" stroke-width="2" stroke-linecap="round" stroke-linejoin="round"/>
<path id="Vector_4" d="M18 7V7.01" stroke="var(--stroke-0, #D71C1D)" stroke-width="2" stroke-linecap="round" stroke-linejoin="round"/>
<path id="Vector_5" d="M21 7V7.01" stroke="var(--stroke-0, #D71C1D)" stroke-width="2" stroke-linecap="round" stroke-linejoin="round"/>
</g>
<defs>
<clipPath id="clip0_5002_15591">
<rect width="24" height="24" fill="white"/>
</clipPath>
</defs>
</svg>
