<svg preserveAspectRatio="none" width="100%" height="100%" overflow="visible" style="display: block;" viewBox="0 0 270.475 45.9136" fill="none" xmlns="http://www.w3.org/2000/svg">
<g id="Group 1000006922">
<g id="SmartBiz">
<path d="M17.8217 45.9136C15.0427 45.9136 12.6665 45.5713 10.693 44.8866C8.71956 44.2019 7.06828 43.3159 5.7392 42.2284C4.4504 41.141 3.42338 39.9932 2.65816 38.7849C1.89293 37.5364 1.30894 36.3684 0.906189 35.281C0.543714 34.1935 0.302063 33.3075 0.181238 32.6228C0.0604126 31.9381 0 31.5958 0 31.5958H8.33694C8.33694 31.5958 8.37722 31.8375 8.45777 32.3208C8.57859 32.8041 8.82024 33.4283 9.18272 34.1935C9.54519 34.9185 10.0688 35.6435 10.7534 36.3684C11.4784 37.0934 12.4249 37.7176 13.5928 38.2412C14.8011 38.7245 16.2913 38.9661 18.0634 38.9661C20.8021 38.9661 22.8762 38.362 24.2859 37.1538C25.7358 35.9052 26.4607 34.3748 26.4607 32.5624C26.4607 31.032 25.917 29.8237 24.8296 28.9377C23.7422 28.0113 22.1312 27.3266 19.9966 26.8836L14.0761 25.615C11.7805 25.1317 9.62574 24.4067 7.61199 23.4401C5.63851 22.4735 4.04765 21.1646 2.83939 19.5133C1.63114 17.862 1.02701 15.7476 1.02701 13.17C1.02701 10.4715 1.69155 8.13558 3.02063 6.1621C4.38998 4.18862 6.26278 2.6783 8.639 1.63115C11.0152 0.543725 13.7942 1.11262e-05 16.9759 1.11262e-05C19.9966 1.11262e-05 22.4936 0.443037 24.4671 1.32909C26.4406 2.21514 28.0113 3.30257 29.1793 4.59137C30.3876 5.88017 31.2736 7.16898 31.8375 8.45778C32.4013 9.74658 32.7638 10.834 32.9249 11.7201C33.1263 12.6061 33.2269 13.0491 33.2269 13.0491H25.1921C25.1921 13.0491 25.1115 12.7471 24.9504 12.1429C24.7893 11.4985 24.4268 10.7736 23.863 9.96809C23.2991 9.16259 22.4534 8.45778 21.3257 7.85365C20.198 7.20925 18.6876 6.88705 16.7947 6.88705C14.0963 6.88705 12.1228 7.49118 10.8743 8.69943C9.66602 9.90768 9.06189 11.2166 9.06189 12.6262C9.06189 14.0762 9.62574 15.2039 10.7534 16.0094C11.8811 16.8149 13.3915 17.4391 15.2844 17.8821L21.6277 19.2112C24.0039 19.7348 26.1788 20.5202 28.1523 21.5673C30.1258 22.6145 31.6965 24.004 32.8645 25.7358C34.0324 27.4273 34.6164 29.5418 34.6164 32.0791C34.6164 34.6567 33.972 36.9927 32.6832 39.087C31.3944 41.1813 29.5015 42.8527 27.0044 44.1012C24.5074 45.3095 21.4465 45.9136 17.8217 45.9136Z" fill="var(--fill-0, #023279)"/>
<path d="M40.7332 45.3095V13.2908H48.7681V17.7613H49.0702C49.4729 17.0364 50.0368 16.2913 50.7617 15.5261C51.4867 14.7206 52.413 14.056 53.5407 13.5324C54.7087 12.9686 56.1384 12.6867 57.83 12.6867C60.2062 12.6867 62.1596 13.2505 63.69 14.3782C65.2205 15.5059 66.3482 16.9558 67.0731 18.7279H67.1939C67.9994 17.1975 69.1876 15.808 70.7583 14.5595C72.3693 13.3109 74.5039 12.6867 77.162 12.6867C79.4174 12.6867 81.2902 13.2102 82.7804 14.2574C84.3108 15.2643 85.4386 16.6336 86.1635 18.3654C86.9287 20.0973 87.3113 21.9701 87.3113 23.9838V45.3095H79.2765V25.6754C79.2765 23.8227 78.8133 22.3124 77.887 21.1444C77.0009 19.9362 75.6718 19.332 73.8997 19.332C72.4901 19.332 71.3423 19.7147 70.4562 20.4799C69.6104 21.2048 68.9862 22.1312 68.5834 23.2589C68.221 24.3866 68.0397 25.5344 68.0397 26.7024V45.3095H60.0048V25.6754C60.0048 23.8227 59.5618 22.3124 58.6758 21.1444C57.7897 19.9362 56.4405 19.332 54.6281 19.332C53.2185 19.332 52.0706 19.7147 51.1846 20.4799C50.3388 21.2048 49.7146 22.1513 49.3118 23.3193C48.9493 24.447 48.7681 25.5747 48.7681 26.7024V45.3095H40.7332Z" fill="var(--fill-0, #023279)"/>
<path d="M108.252 12.6867C110.306 12.6867 111.997 13.029 113.327 13.7137C114.656 14.3581 115.703 15.083 116.468 15.8885C117.233 16.6538 117.757 17.278 118.039 17.7613H118.401V13.2908H126.436V45.3095H118.401V40.8389H118.039C117.757 41.3222 117.233 41.9666 116.468 42.7721C115.703 43.5776 114.656 44.3026 113.327 44.947C111.997 45.5914 110.306 45.9136 108.252 45.9136C105.876 45.9136 103.801 45.4504 102.029 44.5241C100.257 43.5575 98.7671 42.2888 97.5588 40.7181C96.3909 39.1071 95.5048 37.3149 94.9007 35.3414C94.3368 33.3679 94.0549 31.3542 94.0549 29.3001C94.0549 27.2461 94.3368 25.2323 94.9007 23.2589C95.5048 21.2854 96.3909 19.5133 97.5588 17.9426C98.7671 16.3316 100.257 15.0629 102.029 14.1366C103.801 13.17 105.876 12.6867 108.252 12.6867ZM110.366 19.2716C108.554 19.2716 107.023 19.7751 105.775 20.7819C104.567 21.7486 103.661 22.9971 103.056 24.5275C102.452 26.058 102.15 27.6488 102.15 29.3001C102.15 30.9514 102.452 32.5423 103.056 34.0727C103.661 35.6032 104.567 36.8718 105.775 37.8787C107.023 38.8453 108.554 39.3286 110.366 39.3286C112.179 39.3286 113.689 38.8453 114.897 37.8787C116.106 36.8718 117.012 35.6032 117.616 34.0727C118.22 32.5423 118.522 30.9514 118.522 29.3001C118.522 27.6488 118.22 26.058 117.616 24.5275C117.012 22.9971 116.106 21.7486 114.897 20.7819C113.689 19.7751 112.179 19.2716 110.366 19.2716Z" fill="var(--fill-0, #023279)"/>
<path d="M133.948 45.3095V13.2908H141.922V17.7009H142.225C142.788 16.4524 143.715 15.3045 145.004 14.2574C146.292 13.2102 148.226 12.6867 150.803 12.6867C151.609 12.6867 152.273 12.7471 152.797 12.8679C153.32 12.9484 153.582 12.9887 153.582 12.9887V20.7819C153.582 20.7819 153.28 20.7417 152.676 20.6611C152.112 20.5806 151.407 20.5403 150.561 20.5403C147.742 20.5403 145.608 21.3257 144.158 22.8964C142.708 24.4671 141.983 27.0044 141.983 30.5084V45.3095H133.948Z" fill="var(--fill-0, #023279)"/>
<path d="M173.755 45.9136C171.58 45.9136 169.788 45.5914 168.378 44.947C166.969 44.3026 165.861 43.4568 165.056 42.4097C164.291 41.3625 163.747 40.2147 163.425 38.9661C163.102 37.7176 162.941 36.4892 162.941 35.281V19.7549H157.444V13.2908H162.941V5.31632H170.976V13.2908H178.165V19.7549H170.976V35.0997C170.976 37.9593 172.587 39.389 175.809 39.389C176.574 39.389 177.279 39.3488 177.924 39.2682C178.608 39.1474 178.951 39.087 178.951 39.087V45.3699C178.951 45.3699 178.427 45.4504 177.38 45.6115C176.373 45.8129 175.165 45.9136 173.755 45.9136Z" fill="var(--fill-0, #023279)"/>
<path d="M186.115 45.3095V0.60414H205.629C208.488 0.60414 210.925 1.10758 212.938 2.11445C214.952 3.12133 216.483 4.47055 217.53 6.1621C218.617 7.85365 219.161 9.70631 219.161 11.7201C219.161 13.7741 218.778 15.4656 218.013 16.7947C217.288 18.1238 216.402 19.1709 215.355 19.9362C214.348 20.6611 213.422 21.1646 212.576 21.4465V21.8694C213.623 22.1513 214.791 22.695 216.08 23.5005C217.409 24.306 218.557 25.4539 219.523 26.944C220.49 28.3939 220.973 30.2869 220.973 32.6228C220.973 34.7171 220.47 36.751 219.463 38.7245C218.456 40.6577 216.865 42.2486 214.69 43.4971C212.516 44.7053 209.636 45.3095 206.051 45.3095H186.115ZM204.541 7.55159H194.331V19.2112H204.541C206.877 19.2112 208.569 18.6272 209.616 17.4593C210.663 16.2913 211.186 14.9219 211.186 13.3512C211.186 11.8207 210.663 10.4715 209.616 9.30356C208.569 8.13558 206.877 7.55159 204.541 7.55159ZM205.145 25.4941H194.331V38.362H205.145C207.803 38.362 209.737 37.7176 210.945 36.4288C212.153 35.14 212.757 33.6297 212.757 31.8979C212.757 30.2063 212.153 28.7161 210.945 27.4273C209.737 26.1385 207.803 25.4941 205.145 25.4941Z" fill="var(--fill-0, #023279)"/>
<path d="M228.54 45.3095V13.2908H236.574V45.3095H228.54Z" fill="var(--fill-0, #023279)"/>
<path d="M243.833 45.3095V39.7515L260.749 19.6945H244.498V13.2908H270.475V18.8487L253.499 38.9057H270.475V45.3095H243.833Z" fill="var(--fill-0, #023279)"/>
</g>
<path id="." d="M232.808 11.4945C231.276 11.4945 230.025 10.9901 229.053 9.98125C228.119 8.93507 227.652 7.72075 227.652 6.33829C227.652 4.88111 228.119 3.66679 229.053 2.69533C230.025 1.68651 231.276 1.1821 232.808 1.1821C234.303 1.1821 235.536 1.68651 236.507 2.69533C237.479 3.66679 237.964 4.88111 237.964 6.33829C237.964 7.75811 237.479 8.97243 236.507 9.98125C235.536 10.9901 234.303 11.4945 232.808 11.4945Z" fill="var(--fill-0, #D71C1D)"/>
</g>
</svg>
