<svg preserveAspectRatio="none" width="100%" height="100%" overflow="visible" style="display: block;" viewBox="0 0 60.5932 70.7508" fill="none" xmlns="http://www.w3.org/2000/svg">
<g id="Group 2087330170">
<path id="Vector" d="M0.0696943 45.4836C1.00226 45.9369 2.0728 46.7487 2.9762 47.2885C3.72613 47.7366 4.50834 48.219 5.25481 48.6579L14.4413 54.0555C17.1359 55.6916 19.852 57.2916 22.589 58.855C23.8391 59.558 25.0713 60.3184 26.3227 61.0501C27.564 61.7752 28.6643 62.1459 30.126 61.7217C30.5501 61.5986 31.1816 61.1758 31.5741 60.9435L33.2455 59.9656L39.5404 56.3032L47.7309 51.5616L49.9065 50.3027C50.3211 50.0587 50.6439 49.9164 51.0183 49.6097C52.2145 48.6309 52.0423 47.1854 52.0475 45.789L52.0565 42.8601C52.0617 40.8821 52.0981 38.8993 52.0102 36.9232C51.9315 35.151 50.7876 34.3709 49.5308 33.3971L46.8159 31.3273L34.0444 21.6016L31.0292 19.3032C30.7064 19.061 29.6577 18.424 29.5604 18.0885C29.5599 18.0885 31.99 18.8001 32.2389 18.8717C39.9411 21.0978 47.3517 24.2393 54.314 28.2296C55.7395 29.0589 57.2192 29.8935 58.5453 30.8799C60.7876 32.5476 60.5889 35.5096 60.5885 37.9928L60.5829 43.3917L60.5837 48.4565C60.5803 50.6964 60.7408 52.4912 59.3053 54.4153C58.2571 55.8208 57.6698 56.01 56.1801 56.8648L52.6564 58.8502C51.9077 59.2639 51.1533 59.7285 50.4007 60.1552L46.1616 62.5391L37.7642 67.309C36.4957 68.0342 35.2402 68.795 33.9536 69.491C33.5004 69.7364 33.0512 70.003 32.5911 70.2357C31.0686 70.9244 29.1654 70.9 27.6212 70.2962C27.1937 70.1292 26.6875 69.8029 26.2912 69.5745L24.137 68.3282C21.3827 66.7618 18.6417 65.1718 15.9143 63.5579C12.543 61.6395 9.19532 59.6793 5.87188 57.6783C4.77277 57.0197 3.415 56.3628 2.39155 55.6263C1.33966 54.8694 0.0587876 52.9288 0.085101 51.5664C-0.0254757 50.9178 -0.0258214 46.1031 0.0696943 45.4836Z" fill="url(#paint0_linear_5002_15606)"/>
<path id="Vector_2" d="M0.92664 16.6825C0.357441 17.564 0.0406425 18.586 0.0108236 19.6365V37.3623C0.176579 38.4868 0.873711 39.818 1.78858 40.4723C3.07239 41.3906 4.67915 42.3202 6.06143 43.0667C11.0368 45.7994 16.2386 48.0932 21.6085 49.9225C23.0522 50.4144 24.509 50.8664 25.9773 51.2788C27.4489 51.6856 28.6058 51.9435 30.0929 52.4229C29.4295 51.7634 28.9502 51.5207 28.2261 50.9808C26.9616 50.026 25.6816 49.092 24.3869 48.1794C24.0096 47.9131 23.5988 47.6713 23.2302 47.4059C22.4362 46.8339 21.6491 46.2253 20.8591 45.6515C18.1657 43.6996 15.4862 41.7282 12.8208 39.7375C11.9032 39.0572 10.9936 38.3664 10.0922 37.6647C8.99459 36.8199 7.92712 36.1779 7.71782 34.7039C7.5889 33.7961 7.61287 32.841 7.60617 31.9285L7.60894 27.3996L7.61145 24.2896C7.6185 20.516 7.84221 20.5531 11.0957 18.7875L15.108 16.5904L24.375 11.4516C25.0558 11.0702 25.7397 10.6698 26.4387 10.3165C27.9717 9.53968 29.8393 7.98913 31.6652 8.65669C33.1315 9.19267 34.6588 10.2417 36.0082 11.0657L41.7275 14.5334C41.9261 14.7298 43.1284 15.385 43.408 15.555C43.9628 15.8921 44.5757 16.2502 45.1352 16.5852L53.0635 21.4329C54.4523 22.2869 55.8277 23.1629 57.1892 24.0606C58.2357 24.763 59.4665 25.6637 60.5268 26.2943C60.6117 25.2761 60.5705 23.7978 60.577 22.74C60.5822 21.8713 60.6099 20.5143 60.5372 19.6929C60.4944 19.2331 60.413 18.7778 60.294 18.3318C59.6336 15.8756 58.1958 15.0338 56.1644 13.8849L54.0104 12.6601C53.5477 12.4017 53.0955 12.0922 52.635 11.8252C52.1053 11.5177 51.5669 11.2294 51.0367 10.9227C50.0816 10.3155 48.8585 9.67014 47.8718 9.10267C47.3325 8.79255 46.605 8.34671 46.0623 8.08783C45.9545 8.01462 45.7892 7.92301 45.6736 7.85375C45.2729 7.62585 44.9465 7.39877 44.5211 7.17235L44.1481 6.96211L43.6945 6.72616C43.6603 6.69732 43.2998 6.49356 43.2375 6.45728C42.6762 6.17618 41.5172 5.44866 40.9563 5.10762L40.5157 4.83726C39.1472 4.14098 37.8432 3.3152 36.5038 2.55854C36.2567 2.37166 34.9994 1.71088 34.6623 1.52469C32.9034 0.34612 31.3757 -0.274988 29.1985 0.117566C28.1706 0.30288 26.6978 1.23193 25.7766 1.74224L21.5851 4.0933L12.8076 9.04172L6.46469 12.6601C4.44008 13.8028 2.24798 14.6715 0.92664 16.6825Z" fill="url(#paint1_linear_5002_15606)"/>
<path id="Star 4" d="M30.3644 22.8926L33.1542 31.4787H42.1822L34.8784 36.7852L37.6682 45.3713L30.3644 40.0648L23.0607 45.3713L25.8505 36.7852L18.5467 31.4787H27.5746L30.3644 22.8926Z" fill="url(#paint2_linear_5002_15606)"/>
</g>
<defs>
<linearGradient id="paint0_linear_5002_15606" x1="30.2966" y1="18.0885" x2="30.2966" y2="70.7507" gradientUnits="userSpaceOnUse">
<stop stop-color="#C7151B"/>
<stop offset="1" stop-color="#E71F28"/>
</linearGradient>
<linearGradient id="paint1_linear_5002_15606" x1="30.1444" y1="-2.21352e-09" x2="30.1444" y2="52.4229" gradientUnits="userSpaceOnUse">
<stop stop-color="#145CD4"/>
<stop offset="1" stop-color="#103983"/>
</linearGradient>
<linearGradient id="paint2_linear_5002_15606" x1="30.3644" y1="22.8926" x2="30.3644" y2="47.7445" gradientUnits="userSpaceOnUse">
<stop stop-color="#F6D577"/>
<stop offset="1" stop-color="#CF9E30"/>
</linearGradient>
</defs>
</svg>
