<svg preserveAspectRatio="none" width="100%" height="100%" overflow="visible" style="display: block;" viewBox="0 0 170.827 28.9981" fill="none" xmlns="http://www.w3.org/2000/svg">
<g id="Group 1000006922">
<g id="SmartBiz">
<path d="M11.256 28.9981C9.50083 28.9981 8.00005 28.7818 6.75364 28.3494C5.50724 27.917 4.46432 27.3574 3.62491 26.6706C2.81092 25.9838 2.16228 25.2588 1.67898 24.4957C1.19568 23.7072 0.826847 22.9695 0.572478 22.2827C0.343546 21.5959 0.190925 21.0363 0.114614 20.6039C0.0383035 20.1715 0.000148147 19.9552 0.000148147 19.9552H5.26559C5.26559 19.9552 5.29102 20.1079 5.3419 20.4131C5.41821 20.7184 5.57083 21.1126 5.79976 21.5959C6.02869 22.0538 6.35937 22.5117 6.7918 22.9695C7.24966 23.4274 7.84743 23.8217 8.5851 24.1523C9.34821 24.4576 10.2894 24.6102 11.4086 24.6102C13.1383 24.6102 14.4483 24.2286 15.3386 23.4655C16.2543 22.677 16.7122 21.7104 16.7122 20.5657C16.7122 19.5991 16.3688 18.836 15.682 18.2764C14.9952 17.6914 13.9777 17.2589 12.6296 16.9791L8.89034 16.1779C7.44044 15.8726 6.07957 15.4148 4.80772 14.8043C3.56131 14.1938 2.55656 13.3671 1.79345 12.3242C1.03034 11.2813 0.648789 9.94583 0.648789 8.31787C0.648789 6.6136 1.0685 5.13826 1.90791 3.89185C2.77277 2.64544 3.95558 1.69156 5.45636 1.0302C6.95714 0.343402 8.71228 4.38159e-06 10.7218 4.38159e-06C12.6296 4.38159e-06 14.2067 0.27981 15.4531 0.839422C16.6995 1.39903 17.6915 2.08583 18.4292 2.89981C19.1923 3.71379 19.7519 4.52777 20.108 5.34175C20.4641 6.15573 20.6931 6.84253 20.7948 7.40214C20.922 7.96175 20.9856 8.24156 20.9856 8.24156H15.9109C15.9109 8.24156 15.8601 8.05078 15.7583 7.66923C15.6566 7.26224 15.4276 6.80437 15.0715 6.29564C14.7154 5.7869 14.1812 5.34175 13.469 4.9602C12.7567 4.55321 11.8029 4.34971 10.6073 4.34971C8.90306 4.34971 7.65665 4.73127 6.86811 5.49437C6.105 6.25748 5.72345 7.08418 5.72345 7.97447C5.72345 8.8902 6.07957 9.60243 6.7918 10.1112C7.50403 10.6199 8.45792 11.0142 9.65345 11.294L13.6598 12.1334C15.1605 12.4641 16.5341 12.9601 17.7805 13.6215C19.0269 14.2828 20.019 15.1604 20.7567 16.2542C21.4943 17.3225 21.8632 18.658 21.8632 20.2605C21.8632 21.8884 21.4562 23.3638 20.6422 24.6865C19.8282 26.0092 18.6327 27.0649 17.0556 27.8534C15.4785 28.6165 13.5453 28.9981 11.256 28.9981Z" fill="var(--fill-0, #023279)"/>
<path d="M25.7264 28.6165V8.39418H30.801V11.2177H30.9918C31.2462 10.7598 31.6023 10.2892 32.0602 9.80593C32.518 9.29719 33.1031 8.87748 33.8153 8.5468C34.553 8.19068 35.456 8.01263 36.5243 8.01263C38.0251 8.01263 39.2588 8.36874 40.2254 9.08098C41.192 9.79321 41.9043 10.7089 42.3621 11.8282H42.4384C42.9472 10.8616 43.6975 9.98399 44.6896 9.19544C45.7071 8.4069 47.0552 8.01263 48.7341 8.01263C50.1585 8.01263 51.3413 8.3433 52.2825 9.00466C53.2491 9.64059 53.9613 10.5054 54.4192 11.5992C54.9025 12.693 55.1442 13.8758 55.1442 15.1477V28.6165H50.0695V16.216C50.0695 15.0459 49.777 14.092 49.1919 13.3544C48.6323 12.5913 47.7929 12.2097 46.6737 12.2097C45.7834 12.2097 45.0584 12.4514 44.4988 12.9347C43.9646 13.3925 43.5704 13.9776 43.316 14.6898C43.0871 15.402 42.9726 16.127 42.9726 16.8647V28.6165H37.8979V16.216C37.8979 15.0459 37.6181 14.092 37.0585 13.3544C36.4989 12.5913 35.6468 12.2097 34.5021 12.2097C33.6118 12.2097 32.8869 12.4514 32.3273 12.9347C31.7931 13.3925 31.3988 13.9903 31.1444 14.728C30.9155 15.4402 30.801 16.1524 30.801 16.8647V28.6165H25.7264Z" fill="var(--fill-0, #023279)"/>
<path d="M68.3697 8.01263C69.667 8.01263 70.7354 8.22884 71.5748 8.66127C72.4142 9.06826 73.0756 9.52612 73.5589 10.0349C74.0422 10.5182 74.3729 10.9124 74.5509 11.2177H74.7798V8.39418H79.8545V28.6165H74.7798V25.793H74.5509C74.3729 26.0983 74.0422 26.5052 73.5589 27.014C73.0756 27.5227 72.4142 27.9806 71.5748 28.3876C70.7354 28.7946 69.667 28.9981 68.3697 28.9981C66.869 28.9981 65.559 28.7055 64.4397 28.1205C63.3205 27.51 62.3794 26.7087 61.6162 25.7167C60.8786 24.6992 60.319 23.5673 59.9374 22.3209C59.5813 21.0745 59.4032 19.8026 59.4032 18.5053C59.4032 17.2081 59.5813 15.9362 59.9374 14.6898C60.319 13.4434 60.8786 12.3242 61.6162 11.3321C62.3794 10.3147 63.3205 9.5134 64.4397 8.92835C65.559 8.31787 66.869 8.01263 68.3697 8.01263ZM69.7052 12.1716C68.5605 12.1716 67.5939 12.4895 66.8054 13.1254C66.0423 13.7359 65.4699 14.5245 65.0884 15.4911C64.7068 16.4577 64.5161 17.4624 64.5161 18.5053C64.5161 19.5483 64.7068 20.553 65.0884 21.5196C65.4699 22.4862 66.0423 23.2875 66.8054 23.9234C67.5939 24.5339 68.5605 24.8391 69.7052 24.8391C70.8498 24.8391 71.8037 24.5339 72.5668 23.9234C73.3299 23.2875 73.9023 22.4862 74.2838 21.5196C74.6654 20.553 74.8562 19.5483 74.8562 18.5053C74.8562 17.4624 74.6654 16.4577 74.2838 15.4911C73.9023 14.5245 73.3299 13.7359 72.5668 13.1254C71.8037 12.4895 70.8498 12.1716 69.7052 12.1716Z" fill="var(--fill-0, #023279)"/>
<path d="M84.5989 28.6165V8.39418H89.6354V11.1795H89.8262C90.1823 10.391 90.7673 9.66602 91.5813 9.00466C92.3953 8.3433 93.6163 8.01263 95.2442 8.01263C95.753 8.01263 96.1727 8.05078 96.5033 8.12709C96.834 8.17797 96.9994 8.2034 96.9994 8.2034V13.1254C96.9994 13.1254 96.8086 13.1 96.427 13.0491C96.0709 12.9983 95.6258 12.9728 95.0916 12.9728C93.311 12.9728 91.9629 13.4688 91.0471 14.4609C90.1314 15.4529 89.6735 17.0554 89.6735 19.2684V28.6165H84.5989Z" fill="var(--fill-0, #023279)"/>
<path d="M109.74 28.9981C108.367 28.9981 107.235 28.7946 106.344 28.3876C105.454 27.9806 104.755 27.4464 104.246 26.7851C103.763 26.1237 103.419 25.3987 103.216 24.6102C103.012 23.8217 102.91 23.0458 102.91 22.2827V12.4768H99.4383V8.39418H102.91V3.35767H107.985V8.39418H112.526V12.4768H107.985V22.1683C107.985 23.9743 109.003 24.8773 111.038 24.8773C111.521 24.8773 111.966 24.8518 112.373 24.801C112.805 24.7247 113.022 24.6865 113.022 24.6865V28.6547C113.022 28.6547 112.691 28.7055 112.03 28.8073C111.394 28.9345 110.631 28.9981 109.74 28.9981Z" fill="var(--fill-0, #023279)"/>
<path d="M117.547 28.6165V0.38156H129.871C131.677 0.38156 133.216 0.69952 134.488 1.33544C135.759 1.97136 136.726 2.8235 137.387 3.89185C138.074 4.9602 138.418 6.1303 138.418 7.40214C138.418 8.69942 138.176 9.76777 137.693 10.6072C137.235 11.4466 136.675 12.108 136.014 12.5913C135.378 13.0491 134.793 13.3671 134.259 13.5451V13.8122C134.92 13.9903 135.658 14.3337 136.472 14.8424C137.311 15.3512 138.036 16.0761 138.647 17.0173C139.257 17.933 139.562 19.1285 139.562 20.6039C139.562 21.9266 139.244 23.2112 138.608 24.4576C137.972 25.6785 136.968 26.6833 135.594 27.4718C134.22 28.235 132.402 28.6165 130.138 28.6165H117.547ZM129.184 4.76942H122.736V12.1334H129.184C130.659 12.1334 131.728 11.7646 132.389 11.0269C133.05 10.2892 133.381 9.42437 133.381 8.43233C133.381 7.46573 133.05 6.6136 132.389 5.87593C131.728 5.13826 130.659 4.76942 129.184 4.76942ZM129.566 16.1016H122.736V24.2286H129.566C131.244 24.2286 132.465 23.8217 133.228 23.0077C133.992 22.1937 134.373 21.2398 134.373 20.146C134.373 19.0777 133.992 18.1365 133.228 17.3225C132.465 16.5085 131.244 16.1016 129.566 16.1016Z" fill="var(--fill-0, #023279)"/>
<path d="M144.341 28.6165V8.39418H149.416V28.6165H144.341Z" fill="var(--fill-0, #023279)"/>
<path d="M154 28.6165V25.1062L164.684 12.4386H154.42V8.39418H170.827V11.9045L160.105 24.572H170.827V28.6165H154Z" fill="var(--fill-0, #023279)"/>
</g>
<path id="." d="M147.037 7.25965C146.069 7.25965 145.279 6.94108 144.665 6.30393C144.075 5.64318 143.78 4.87624 143.78 4.00311C143.78 3.08278 144.075 2.31584 144.665 1.70229C145.279 1.06514 146.069 0.746564 147.037 0.746564C147.981 0.746564 148.759 1.06514 149.373 1.70229C149.986 2.31584 150.293 3.08278 150.293 4.00311C150.293 4.89984 149.986 5.66678 149.373 6.30393C148.759 6.94108 147.981 7.25965 147.037 7.25965Z" fill="var(--fill-0, #D71C1D)"/>
</g>
</svg>
