<svg preserveAspectRatio="none" width="100%" height="100%" overflow="visible" style="display: block;" viewBox="0 0 38.2694 44.6845" fill="none" xmlns="http://www.w3.org/2000/svg">
<g id="Group 2087330170">
<path id="Vector" d="M0.0440175 28.7264C0.633007 29.0127 1.30914 29.5253 1.8797 29.8663C2.35334 30.1493 2.84737 30.454 3.31883 30.7312L9.12081 34.1402C10.8226 35.1735 12.5381 36.184 14.2667 37.1714C15.0563 37.6154 15.8345 38.0957 16.6249 38.5578C17.4088 39.0158 18.1038 39.2499 19.0269 38.982C19.2948 38.9043 19.6936 38.6372 19.9415 38.4905L20.9972 37.8729L24.9729 35.5598L30.1458 32.5651L31.5199 31.77C31.7817 31.6159 31.9856 31.526 32.2221 31.3323C32.9776 30.7141 32.8688 29.8012 32.8721 28.9192L32.8778 27.0694C32.8811 25.8201 32.9041 24.5679 32.8486 23.3198C32.7988 22.2005 32.0764 21.7078 31.2826 21.0928L29.568 19.7855L21.5018 13.643L19.5974 12.1913C19.3935 12.0384 18.7312 11.6361 18.6697 11.4242C18.6694 11.4242 20.2042 11.8736 20.3614 11.9188C25.226 13.3248 29.9064 15.3089 34.3036 17.8291C35.2039 18.3529 36.1385 18.88 36.976 19.5029C38.3921 20.5562 38.2667 22.427 38.2664 23.9953L38.2629 27.4051L38.2634 30.604C38.2612 32.0186 38.3626 33.1522 37.456 34.3674C36.7939 35.2551 36.423 35.3746 35.4822 35.9145L33.2567 37.1684C32.7838 37.4297 32.3074 37.7231 31.832 37.9927L29.1547 39.4982L23.8511 42.5108C23.0499 42.9688 22.257 43.4493 21.4444 43.8889C21.1582 44.0439 20.8744 44.2123 20.5839 44.3593C19.6223 44.7942 18.4202 44.7788 17.445 44.3975C17.1749 44.292 16.8553 44.0859 16.605 43.9417L15.2444 43.1545C13.5049 42.1652 11.7737 41.161 10.0511 40.1417C7.92193 38.9301 5.80757 37.6921 3.70855 36.4283C3.01438 36.0123 2.15684 35.5974 1.51045 35.1323C0.846101 34.6542 0.037129 33.4286 0.053748 32.5681C-0.0160899 32.1585 -0.0163083 29.1176 0.0440175 28.7264Z" fill="url(#paint0_linear_5001_15494)"/>
<path id="Vector_2" d="M0.585017 10.5363C0.225522 11.0931 0.0254392 11.7385 0.00660616 12.402V23.5972C0.111294 24.3075 0.551588 25.1482 1.1294 25.5614C1.94023 26.1414 2.95502 26.7286 3.82804 27.2C6.97036 28.926 10.2557 30.3747 13.6472 31.53C14.5591 31.8407 15.4792 32.1262 16.4065 32.3866C17.3359 32.6435 18.0666 32.8064 19.0058 33.1092C18.5868 32.6927 18.2841 32.5394 17.8268 32.1984C17.0281 31.5954 16.2197 31.0055 15.402 30.4291C15.1637 30.2609 14.9043 30.1082 14.6715 29.9406C14.17 29.5793 13.6729 29.1949 13.1739 28.8325C11.4728 27.5998 9.7805 26.3546 8.09712 25.0974C7.51759 24.6677 6.94311 24.2314 6.3738 23.7882C5.68056 23.2547 5.00637 22.8492 4.87419 21.9183C4.79276 21.3449 4.8079 20.7417 4.80367 20.1653L4.80541 17.305L4.807 15.3408C4.81145 12.9575 4.95274 12.9809 7.00759 11.8658L9.54168 10.4782L15.3945 7.23256C15.8245 6.99172 16.2565 6.73884 16.6979 6.5157C17.6661 6.02506 18.8457 5.04576 19.9989 5.46739C20.9249 5.8059 21.8895 6.46841 22.7418 6.98889L26.354 9.17901C26.4794 9.30303 27.2388 9.71684 27.4153 9.82419C27.7658 10.0371 28.1528 10.2633 28.5062 10.4749L33.5135 13.5366C34.3907 14.0759 35.2593 14.6292 36.1193 15.1961C36.7802 15.6398 37.5576 16.2086 38.2273 16.6069C38.2808 15.9639 38.2549 15.0302 38.259 14.3621C38.2622 13.8135 38.2797 12.9564 38.2338 12.4376C38.2068 12.1472 38.1554 11.8597 38.0802 11.578C37.6631 10.0267 36.755 9.49504 35.472 8.76942L34.1116 7.99588C33.8194 7.83268 33.5338 7.6372 33.2429 7.46854C32.9084 7.27435 32.5683 7.09227 32.2335 6.89852C31.6302 6.51507 30.8578 6.10746 30.2346 5.74905C29.894 5.55319 29.4345 5.2716 29.0917 5.1081C29.0237 5.06186 28.9193 5.004 28.8463 4.96026C28.5932 4.81633 28.3871 4.67291 28.1184 4.52991L27.8828 4.39712L27.5963 4.2481C27.5747 4.22989 27.347 4.1012 27.3077 4.07828C26.9531 3.90074 26.2211 3.44126 25.8669 3.22586L25.5886 3.05511C24.7243 2.61536 23.9008 2.09381 23.0548 1.61592C22.8987 1.49789 22.1047 1.08056 21.8917 0.962965C20.7809 0.218602 19.816 -0.173677 18.4409 0.0742519C17.7917 0.191293 16.8615 0.778062 16.2797 1.10036L13.6325 2.58524L8.08878 5.71056L4.08274 7.99588C2.80403 8.71755 1.41955 9.26621 0.585017 10.5363Z" fill="url(#paint1_linear_5001_15494)"/>
<path id="Star 4" d="M19.1776 14.4587L20.9395 19.8814H26.6414L22.0285 23.2329L23.7905 28.6557L19.1776 25.3042L14.5647 28.6557L16.3266 23.2329L11.7137 19.8814H17.4156L19.1776 14.4587Z" fill="url(#paint2_linear_5001_15494)"/>
</g>
<defs>
<linearGradient id="paint0_linear_5001_15494" x1="19.1347" y1="11.4242" x2="19.1347" y2="44.6845" gradientUnits="userSpaceOnUse">
<stop stop-color="#C7151B"/>
<stop offset="1" stop-color="#E71F28"/>
</linearGradient>
<linearGradient id="paint1_linear_5001_15494" x1="19.0383" y1="-1.07884e-10" x2="19.0383" y2="33.1092" gradientUnits="userSpaceOnUse">
<stop stop-color="#145CD4"/>
<stop offset="1" stop-color="#103983"/>
</linearGradient>
<linearGradient id="paint2_linear_5001_15494" x1="19.1776" y1="14.4587" x2="19.1776" y2="30.1545" gradientUnits="userSpaceOnUse">
<stop stop-color="#F6D577"/>
<stop offset="1" stop-color="#CF9E30"/>
</linearGradient>
</defs>
</svg>
