<svg preserveAspectRatio="none" width="100%" height="100%" overflow="visible" style="display: block;" viewBox="0 0 38 30" fill="none" xmlns="http://www.w3.org/2000/svg">
<path id="Quote Symbol" d="M0 30V20.8989C0 18.3895 0.482894 15.824 1.44868 13.2022C2.45161 10.5805 3.73314 8.12734 5.29326 5.8427C6.89052 3.5206 8.5435 1.57303 10.2522 0L18.4428 4.49438C17.2913 6.62921 16.2141 8.98876 15.2111 11.573C14.2454 14.1573 13.7625 17.2846 13.7625 20.9551V30H0ZM19.5572 30V20.8989C19.5572 18.3895 20.0401 15.824 21.0059 13.2022C22.0088 10.5805 23.2903 8.12734 24.8504 5.8427C26.4477 3.5206 28.1007 1.57303 29.8094 0L38 4.49438C36.8485 6.62921 35.7713 8.98876 34.7683 11.573C33.8025 14.1573 33.3197 17.2846 33.3197 20.9551V30H19.5572Z" fill="var(--fill-0, white)" fill-opacity="0.3"/>
</svg>
