<svg preserveAspectRatio="none" width="100%" height="100%" overflow="visible" style="display: block;" viewBox="0 0 37 29" fill="none" xmlns="http://www.w3.org/2000/svg">
<path id="Quote Symbol" d="M0 29V20.2022C0 17.7765 0.470186 15.2965 1.41056 12.7622C2.3871 10.2278 3.6349 7.85643 5.15396 5.64794C6.70919 3.40325 8.31867 1.5206 9.9824 0L17.9575 4.34457C16.8363 6.40824 15.7874 8.68914 14.8109 11.1873C13.8705 13.6854 13.4003 16.7085 13.4003 20.2566V29H0ZM19.0425 29V20.2022C19.0425 17.7765 19.5127 15.2965 20.4531 12.7622C21.4296 10.2278 22.6774 7.85643 24.1965 5.64794C25.7517 3.40325 27.3612 1.5206 29.0249 0L37 4.34457C35.8788 6.40824 34.8299 8.68914 33.8534 11.1873C32.913 13.6854 32.4428 16.7085 32.4428 20.2566V29H19.0425Z" fill="var(--fill-0, white)" fill-opacity="0.3"/>
</svg>
